<svg width="98" height="30" viewBox="0 0 98 30" fill="none" xmlns="http://www.w3.org/2000/svg">
<path d="M2.076 29.036C1.548 29.036 1.104 28.868 0.744 28.532C0.408 28.172 0.24 27.728 0.24 27.2V11.18C0.24 10.628 0.408 10.184 0.744 9.848C1.104 9.512 1.548 9.344 2.076 9.344C2.628 9.344 3.072 9.512 3.408 9.848C3.744 10.184 3.912 10.604 3.912 11.108C4.536 10.484 5.28 10.004 6.144 9.668C7.008 9.308 7.944 9.128 8.952 9.128C11.472 9.128 13.368 10.076 14.64 11.972C15.336 11.084 16.224 10.388 17.304 9.884C18.384 9.38 19.596 9.128 20.94 9.128C23.004 9.128 24.684 9.8 25.98 11.144C27.276 12.488 27.924 14.408 27.924 16.904V27.2C27.924 27.728 27.756 28.172 27.42 28.532C27.084 28.868 26.64 29.036 26.088 29.036C25.56 29.036 25.116 28.868 24.756 28.532C24.42 28.172 24.252 27.728 24.252 27.2V16.904C24.252 15.392 23.88 14.276 23.136 13.556C22.392 12.812 21.42 12.44 20.22 12.44C18.972 12.44 17.94 12.872 17.124 13.736C16.332 14.6 15.936 15.704 15.936 17.048V27.2C15.936 27.728 15.768 28.172 15.432 28.532C15.096 28.868 14.652 29.036 14.1 29.036C13.572 29.036 13.128 28.868 12.768 28.532C12.432 28.172 12.264 27.728 12.264 27.2V16.904C12.264 15.392 11.892 14.276 11.148 13.556C10.404 12.812 9.432 12.44 8.232 12.44C6.984 12.44 5.952 12.872 5.136 13.736C4.32 14.6 3.912 15.704 3.912 17.048V27.2C3.912 27.728 3.744 28.172 3.408 28.532C3.072 28.868 2.628 29.036 2.076 29.036ZM42.7372 29.144C40.7452 29.144 38.9692 28.724 37.4092 27.884C35.8732 27.02 34.6612 25.844 33.7732 24.356C32.9092 22.844 32.4772 21.116 32.4772 19.172C32.4772 17.204 32.8852 15.476 33.7012 13.988C34.5412 12.476 35.6932 11.3 37.1572 10.46C38.6212 9.596 40.3012 9.164 42.1972 9.164C44.0692 9.164 45.6772 9.584 47.0212 10.424C48.3652 11.24 49.3852 12.38 50.0812 13.844C50.8012 15.284 51.1612 16.952 51.1612 18.848C51.1612 19.304 51.0052 19.688 50.6932 20C50.3812 20.288 49.9852 20.432 49.5052 20.432H35.8252C36.0892 22.088 36.8452 23.444 38.0932 24.5C39.3652 25.532 40.9132 26.048 42.7372 26.048C43.4812 26.048 44.2372 25.916 45.0052 25.652C45.7972 25.364 46.4332 25.04 46.9132 24.68C47.2732 24.416 47.6572 24.284 48.0652 24.284C48.4972 24.26 48.8692 24.38 49.1812 24.644C49.5892 25.004 49.8052 25.4 49.8292 25.832C49.8532 26.264 49.6612 26.636 49.2532 26.948C48.4372 27.596 47.4172 28.124 46.1932 28.532C44.9932 28.94 43.8412 29.144 42.7372 29.144ZM42.1972 12.26C40.4212 12.26 38.9932 12.752 37.9132 13.736C36.8332 14.72 36.1492 15.992 35.8612 17.552H47.8492C47.6332 16.016 47.0452 14.756 46.0852 13.772C45.1252 12.764 43.8292 12.26 42.1972 12.26ZM59.9845 29C58.9285 29 57.9925 28.712 57.1765 28.136C56.3605 27.56 55.7245 26.78 55.2685 25.796C54.8125 24.788 54.5845 23.636 54.5845 22.34V2.684C54.5845 2.156 54.7525 1.724 55.0885 1.388C55.4245 1.052 55.8565 0.883999 56.3845 0.883999C56.9125 0.883999 57.3445 1.052 57.6805 1.388C58.0165 1.724 58.1845 2.156 58.1845 2.684V22.34C58.1845 23.228 58.3525 23.96 58.6885 24.536C59.0245 25.112 59.4565 25.4 59.9845 25.4H60.8845C61.3645 25.4 61.7485 25.568 62.0365 25.904C62.3485 26.24 62.5045 26.672 62.5045 27.2C62.5045 27.728 62.2765 28.16 61.8205 28.496C61.3645 28.832 60.7765 29 60.0565 29H59.9845ZM70.2375 29C69.1815 29 68.2455 28.712 67.4295 28.136C66.6135 27.56 65.9775 26.78 65.5215 25.796C65.0655 24.788 64.8375 23.636 64.8375 22.34V2.684C64.8375 2.156 65.0055 1.724 65.3415 1.388C65.6775 1.052 66.1095 0.883999 66.6375 0.883999C67.1655 0.883999 67.5975 1.052 67.9335 1.388C68.2695 1.724 68.4375 2.156 68.4375 2.684V22.34C68.4375 23.228 68.6055 23.96 68.9415 24.536C69.2775 25.112 69.7095 25.4 70.2375 25.4H71.1375C71.6175 25.4 72.0015 25.568 72.2895 25.904C72.6015 26.24 72.7575 26.672 72.7575 27.2C72.7575 27.728 72.5295 28.16 72.0735 28.496C71.6175 28.832 71.0295 29 70.3095 29H70.2375ZM79.2566 29C78.8726 29 78.5126 28.892 78.1766 28.676C77.8646 28.436 77.6486 28.148 77.5286 27.812L72.2006 11.828C72.0086 11.084 72.0086 10.484 72.2006 10.028C72.4166 9.548 72.8726 9.308 73.5686 9.308C74.0246 9.308 74.3966 9.44 74.6846 9.704C74.9966 9.944 75.2486 10.364 75.4406 10.964L79.3286 23.096L83.0006 10.676C83.1206 10.268 83.3246 9.944 83.6126 9.704C83.9006 9.44 84.2966 9.308 84.8006 9.308C85.2806 9.308 85.6646 9.44 85.9526 9.704C86.2646 9.944 86.4686 10.268 86.5646 10.676L89.8046 23.348L93.7646 10.964C94.1006 9.86 94.7246 9.308 95.6366 9.308C96.3086 9.308 96.7646 9.548 97.0046 10.028C97.2446 10.484 97.2326 11.084 96.9686 11.828L91.6406 27.812C91.5446 28.148 91.3406 28.436 91.0286 28.676C90.7166 28.892 90.3566 29 89.9486 29C89.5646 29 89.2046 28.892 88.8686 28.676C88.5326 28.436 88.3166 28.148 88.2206 27.812L84.6926 14.744L80.9846 27.812C80.8886 28.148 80.6726 28.436 80.3366 28.676C80.0246 28.892 79.6646 29 79.2566 29Z" fill="black"/>
</svg>
