<svg width="128" height="128" viewBox="0 0 128 128" fill="none" xmlns="http://www.w3.org/2000/svg">
<g filter="url(#filter0_d)">
<path fill-rule="evenodd" clip-rule="evenodd" d="M85.166 30V45.546L77.399 32.083L72.379 34.983L80.146 48.447L66.693 40.674L63.794 45.699L77.247 53.472H61.713V59.274H77.247L63.794 67.047L66.693 72.071L80.146 64.298L72.379 77.762L77.399 80.663L85.166 67.199V82.745H90.963V67.2L98.729 80.664L103.75 77.763L95.983 64.299L109.436 72.072L112.335 67.048L98.883 59.275H114.415V53.473H98.883L112.335 45.7L109.435 40.675L95.983 48.448L103.75 34.984L98.73 32.083L90.963 45.546V30H85.166Z" fill="#EDAE49"/>
<path fill-rule="evenodd" clip-rule="evenodd" d="M67.223 39.73L43.145 61.423V87.925H91.3V61.423L67.223 39.73ZM52.513 78.289H57.854V68.649H52.512V78.289H52.513Z" fill="#7B53C1"/>
<path fill-rule="evenodd" clip-rule="evenodd" d="M37.622 80.716H33.595C32.775 82.979 30.613 84.604 28.072 84.604C25.532 84.604 23.369 82.979 22.55 80.716H18.522C17.702 82.979 15.54 84.604 13 84.604V87.922C14.4809 87.9212 15.9396 87.5623 17.2518 86.8759C18.564 86.1895 19.6908 85.196 20.536 83.98C21.3813 85.1959 22.5081 86.1894 23.8203 86.8758C25.1324 87.5622 26.5911 87.9211 28.072 87.922C29.5529 87.9212 31.0116 87.5623 32.3238 86.8759C33.636 86.1895 34.7628 85.196 35.608 83.98C36.4534 85.1961 37.5803 86.1896 38.8927 86.876C40.2051 87.5624 41.664 87.9213 43.145 87.922V84.604C40.605 84.604 38.442 82.979 37.622 80.716ZM37.622 90.687H33.595C32.775 92.951 30.613 94.575 28.072 94.575C25.532 94.575 23.369 92.951 22.55 90.687H18.522C17.702 92.951 15.54 94.575 13 94.575V97.894C14.4809 97.8932 15.9396 97.5343 17.2518 96.8479C18.564 96.1615 19.6908 95.168 20.536 93.952C21.3813 95.1679 22.5081 96.1614 23.8203 96.8478C25.1324 97.5342 26.5911 97.8931 28.072 97.894C29.5529 97.8932 31.0116 97.5343 32.3238 96.8479C33.636 96.1615 34.7628 95.168 35.608 93.952C36.4534 95.1681 37.5803 96.1616 38.8927 96.848C40.2051 97.5344 41.664 97.8933 43.145 97.894V94.575C40.605 94.575 38.442 92.951 37.622 90.687ZM37.622 70.744C38.442 73.007 40.605 74.632 43.145 74.632V77.95C41.6641 77.9494 40.2052 77.5907 38.8929 76.9045C37.5805 76.2182 36.4535 75.2249 35.608 74.009C34.7626 75.2247 33.6358 76.218 32.3236 76.9042C31.0114 77.5904 29.5528 77.9492 28.072 77.95C26.5912 77.9492 25.1326 77.5904 23.8204 76.9042C22.5082 76.218 21.3814 75.2247 20.536 74.009C19.6906 75.2247 18.5638 76.218 17.2516 76.9042C15.9394 77.5904 14.4808 77.9492 13 77.95L13 74.632C15.54 74.632 17.703 73.007 18.522 70.744H22.55C23.37 73.007 25.532 74.632 28.072 74.632C30.612 74.632 32.775 73.007 33.595 70.744H37.622Z" fill="#00ADBB"/>
</g>
<defs>
<filter id="filter0_d" x="-4" y="0" width="136" height="136" filterUnits="userSpaceOnUse" color-interpolation-filters="sRGB">
<feFlood flood-opacity="0" result="BackgroundImageFix"/>
<feColorMatrix in="SourceAlpha" type="matrix" values="0 0 0 0 0 0 0 0 0 0 0 0 0 0 0 0 0 0 127 0"/>
<feOffset dy="4"/>
<feGaussianBlur stdDeviation="2"/>
<feColorMatrix type="matrix" values="0 0 0 0 0 0 0 0 0 0 0 0 0 0 0 0 0 0 0.25 0"/>
<feBlend mode="normal" in2="BackgroundImageFix" result="effect1_dropShadow"/>
<feBlend mode="normal" in="SourceGraphic" in2="effect1_dropShadow" result="shape"/>
</filter>
</defs>
</svg>
