<svg width="128" height="128" viewBox="0 0 128 128" fill="none" xmlns="http://www.w3.org/2000/svg">
<g filter="url(#filter0_d)">
<path fill-rule="evenodd" clip-rule="evenodd" d="M41.55 58.826C40.8187 59.5509 39.8307 59.9576 38.801 59.9576C37.7713 59.9576 36.7833 59.5509 36.052 58.826C35.3272 58.0949 34.9205 57.107 34.9205 56.0775C34.9205 55.048 35.3272 54.0602 36.052 53.329C36.7831 52.6037 37.7712 52.1967 38.801 52.1967C39.8309 52.1967 40.819 52.6037 41.55 53.329C42.2748 54.0602 42.6815 55.048 42.6815 56.0775C42.6815 57.107 42.2748 58.0949 41.55 58.826ZM59.577 60.366L55.288 56.076L59.577 51.788H59.576C60.6655 50.7034 61.5296 49.4139 62.1186 47.9939C62.7076 46.5739 63.0099 45.0514 63.008 43.514C63.008 37.057 57.773 31.822 51.317 31.822C49.7773 31.82 48.2524 32.1231 46.8305 32.7139C45.4086 33.3047 44.1179 34.1714 43.033 35.264L38.755 39.542H38.754L34.475 35.266C33.3903 34.1734 32.0998 33.3066 30.6781 32.7156C29.2564 32.1246 27.7316 31.8213 26.192 31.823C19.735 31.823 14.5 37.058 14.5 43.516C14.5 46.747 15.812 49.673 17.932 51.789V51.79L22.219 56.078L17.931 60.366H17.932C16.8423 61.4507 15.9781 62.7403 15.389 64.1606C14.8 65.5808 14.4979 67.1035 14.5 68.641C14.5 75.097 19.735 80.331 26.192 80.331C27.7316 80.3331 29.2563 80.0299 30.6781 79.4391C32.0998 78.8484 33.3903 77.9816 34.475 76.889L38.753 72.612H38.754L43.033 76.889C44.1178 77.9819 45.4084 78.8488 46.8303 79.4398C48.2523 80.0308 49.7772 80.334 51.317 80.332C57.773 80.332 63.007 75.097 63.007 68.641C63.007 65.409 61.696 62.483 59.576 60.367L59.577 60.366Z" fill="#EDAE49"/>
<path fill-rule="evenodd" clip-rule="evenodd" d="M67.8571 47.745V62.303L55.7241 55.023L43.6071 62.267V96.252H92.1141V47.745H67.8571ZM81.8561 60.362H87.1921V55.026H81.8561V60.362ZM76.5181 72.482H81.8541V67.145H76.5181V72.481V72.482Z" fill="#7B53C1"/>
<path fill-rule="evenodd" clip-rule="evenodd" d="M111.446 85.391C111.446 84.941 111.39 84.505 111.288 84.087H111.29L111.276 84.034C111.275 84.0306 111.274 84.0273 111.273 84.024L109.951 78.821H109.948C109.749 77.9191 109.248 77.1122 108.528 76.5336C107.808 75.955 106.913 75.6394 105.989 75.639C105.065 75.6393 104.169 75.9549 103.449 76.5335C102.729 77.1121 102.228 77.919 102.029 78.821H102.026L100.705 84.023L100.702 84.033L100.688 84.087H100.69C100.346 85.4872 100.57 86.9667 101.312 88.2025C102.055 89.4384 103.257 90.3301 104.655 90.683V96.253H107.323V90.683C108.501 90.3856 109.546 89.7036 110.293 88.7451C111.04 87.7865 111.446 86.6061 111.446 85.391ZM97.96 84.141C98.2878 85.5353 98.0545 87.0025 97.3106 88.2265C96.5667 89.4504 95.3716 90.333 93.983 90.684V96.253H91.315V90.683C89.9262 90.3322 88.731 89.4497 87.987 88.2257C87.243 87.0017 87.0099 85.5343 87.338 84.14H87.332L88.741 75.36H88.746C88.8871 74.4255 89.3587 73.5726 90.075 72.9561C90.7913 72.3396 91.7049 72.0004 92.65 72C93.5949 72.0006 94.5083 72.34 95.2244 72.9565C95.9405 73.5729 96.4118 74.4257 96.553 75.36H96.559L97.972 84.14H97.96V84.141Z" fill="#5FBB97"/>
</g>
<defs>
<filter id="filter0_d" x="-4" y="0" width="136" height="136" filterUnits="userSpaceOnUse" color-interpolation-filters="sRGB">
<feFlood flood-opacity="0" result="BackgroundImageFix"/>
<feColorMatrix in="SourceAlpha" type="matrix" values="0 0 0 0 0 0 0 0 0 0 0 0 0 0 0 0 0 0 127 0"/>
<feOffset dy="4"/>
<feGaussianBlur stdDeviation="2"/>
<feColorMatrix type="matrix" values="0 0 0 0 0 0 0 0 0 0 0 0 0 0 0 0 0 0 0.25 0"/>
<feBlend mode="normal" in2="BackgroundImageFix" result="effect1_dropShadow"/>
<feBlend mode="normal" in="SourceGraphic" in2="effect1_dropShadow" result="shape"/>
</filter>
</defs>
</svg>
