<svg width="128" height="128" viewBox="0 0 128 128" fill="none" xmlns="http://www.w3.org/2000/svg">
<g filter="url(#filter0_d)">
<path fill-rule="evenodd" clip-rule="evenodd" d="M84.492 73.5111L85.509 73.2081L85.743 72.1561C86.375 69.3221 88.811 67.3421 91.667 67.3421C95.017 67.3421 97.743 70.1201 97.743 73.5351V75.3711H99.545C101.932 75.3711 103.915 77.1461 104.303 79.4681H107.94C107.583 75.6811 104.807 72.6031 101.208 71.8661C100.428 67.2181 96.446 63.6691 91.667 63.6691C87.463 63.6691 83.83 66.3631 82.507 70.3361C78.937 71.8431 76.521 75.4551 76.521 79.4541H80.125C80.125 76.7211 81.921 74.2781 84.492 73.5111ZM109.276 68.6551H105.672C105.672 66.1651 103.685 64.1401 101.242 64.1401H99.44V62.3041C99.44 60.3121 98.131 58.5311 96.257 57.9721L95.24 57.6681L95.005 56.6161C94.545 54.5501 92.769 53.1071 90.687 53.1071C88.245 53.1071 86.257 55.1321 86.257 57.6221V59.4581H84.455C82.555 59.4581 81.01 61.0331 81.01 62.9691H77.407C77.407 59.5831 79.717 56.7371 82.815 55.9821C83.563 52.2501 86.808 49.4351 90.687 49.4351C94.117 49.4351 97.091 51.5971 98.232 54.8051C100.609 55.8701 102.342 58.0671 102.874 60.6371C106.524 61.4071 109.276 64.7101 109.276 68.6551Z" fill="#CEB7FF"/>
<path fill-rule="evenodd" clip-rule="evenodd" d="M44.276 61.664C43.8514 62.0934 43.3458 62.4342 42.7885 62.6669C42.2313 62.8995 41.6334 63.0193 41.0295 63.0193C40.4256 63.0193 39.8278 62.8995 39.2705 62.6669C38.7132 62.4342 38.2076 62.0934 37.783 61.664C36.001 59.857 36.001 56.888 37.783 55.081C38.2076 54.6516 38.7132 54.3108 39.2705 54.0781C39.8278 53.8455 40.4256 53.7257 41.0295 53.7257C41.6334 53.7257 42.2313 53.8455 42.7885 54.0781C43.3458 54.3108 43.8514 54.6516 44.276 55.081C46.059 56.888 46.059 59.857 44.276 61.664ZM63.946 58.365C63.946 45.532 53.686 35.13 41.029 35.13C28.371 35.13 18.111 45.532 18.111 58.365C18.0988 64.0527 20.165 69.5489 23.921 73.82H23.916L41.029 93.222L58.143 73.82H58.136C61.8921 69.5489 63.9583 64.0527 63.946 58.365Z" fill="#7B53C1"/>
<path fill-rule="evenodd" clip-rule="evenodd" d="M59.448 58.5601L50.917 67.2321V93.2451H57.57V84.5781H61.323V93.2451H74.577V84.5781H78.33V93.2451H85.035V75.8751L76.513 67.2291L67.97 75.9001V67.2311L59.448 58.5601Z" fill="#EDAE49"/>
</g>
<defs>
<filter id="filter0_d" x="-4" y="0" width="136" height="136" filterUnits="userSpaceOnUse" color-interpolation-filters="sRGB">
<feFlood flood-opacity="0" result="BackgroundImageFix"/>
<feColorMatrix in="SourceAlpha" type="matrix" values="0 0 0 0 0 0 0 0 0 0 0 0 0 0 0 0 0 0 127 0"/>
<feOffset dy="4"/>
<feGaussianBlur stdDeviation="2"/>
<feColorMatrix type="matrix" values="0 0 0 0 0 0 0 0 0 0 0 0 0 0 0 0 0 0 0.25 0"/>
<feBlend mode="normal" in2="BackgroundImageFix" result="effect1_dropShadow"/>
<feBlend mode="normal" in="SourceGraphic" in2="effect1_dropShadow" result="shape"/>
</filter>
</defs>
</svg>
