<svg width="70" height="76" viewBox="0 0 70 76" fill="none" xmlns="http://www.w3.org/2000/svg">
<path fill-rule="evenodd" clip-rule="evenodd" d="M44.9394 72.336L51.4848 69.754L45.2188 49.182L59.0668 62.732L64.2153 57.472L50.9532 43.863L66.569 47.241L61.4741 39.031L51.0604 35.479L69.1326 28.349L66.865 20.898L48.7928 28.03L61.3107 11.568L56.0744 6.408L43.5548 22.869L47.1657 1.489L40.3629 0L36.752 21.382L30.486 0.81L23.9407 3.392L30.2075 23.963L15.7436 9.713L11.2102 15.674L25.6732 29.924L6.88761 25.814L5.58118 33.557L24.3659 37.667L6.29194 44.798L8.56041 52.248L26.6344 45.117L17.752 56.794L19.351 66.738L31.8707 50.278L28.2597 71.658L35.0634 73.146L38.6743 51.765" fill="#D93C23"/>
<path fill-rule="evenodd" clip-rule="evenodd" d="M10.1927 65.204H15.4554V54.404H10.1927V65.204ZM25.8788 24.614L0.964233 46.306V76H48.4053V46.307L25.8788 24.613V24.614Z" fill="#00ADBB"/>
<path fill-rule="evenodd" clip-rule="evenodd" d="M67.9904 49.256C67.9904 43.322 63.7645 38.511 58.5502 38.511C55.9355 38.511 53.5695 39.721 51.8598 41.675L48.4053 45.607L44.9508 41.675C44.0748 40.6705 43.0326 39.8737 41.8844 39.3304C40.7362 38.7872 39.5048 38.5083 38.2613 38.51C33.047 38.51 28.8202 43.321 28.8202 49.255C28.8202 52.226 29.8797 54.915 31.5912 56.861L35.0537 60.802L48.4053 76L61.7561 60.803L65.2194 56.862C66.0992 55.8649 66.7971 54.6796 67.2726 53.3742C67.7482 52.0688 67.9922 50.6692 67.9904 49.256Z" fill="#FF5D3E"/>
</svg>
