<svg width="108" height="74" viewBox="0 0 108 74" fill="none" xmlns="http://www.w3.org/2000/svg">
<path fill-rule="evenodd" clip-rule="evenodd" d="M107.357 17.1277C107.357 7.90977 100.507 0.436598 92.0585 0.436598C87.8222 0.436598 83.9877 2.31701 81.2168 5.35086L75.6193 11.4593L70.0209 5.35183C68.5976 3.79005 66.9073 2.55186 65.047 1.70825C63.1867 0.864626 61.193 0.432158 59.1802 0.435629C50.7305 0.435629 43.8813 7.9088 43.8813 17.1267C43.8813 21.7405 45.5976 25.9181 48.3712 28.9393V28.9403L53.9837 35.0633L75.6193 58.6682L97.255 35.0642L102.867 28.9413C104.291 27.3965 105.422 25.5567 106.192 23.5287C106.963 21.5007 107.359 19.3249 107.357 17.1277Z" fill="#D93C23"/>
<path fill-rule="evenodd" clip-rule="evenodd" d="M40.6698 23.8428V36.3369H29.0518V73.8976H75.5268V41.3442H59.2625V23.8438H40.669L40.6698 23.8428ZM35.5608 46.8662H40.6734V41.3607H35.5608V46.8662ZM40.6592 58.8902H45.7718V53.3847H40.6592V58.8902Z" fill="#3B4144"/>
<path fill-rule="evenodd" clip-rule="evenodd" d="M24.6281 56.119L28.8962 49.5376V56.119H24.6281ZM22.214 64.041H28.8962V59.9506H22.214V64.041ZM32.3923 49.9476V40.9836C32.3923 40.7318 32.347 40.4823 32.2591 40.2496C32.1712 40.017 32.0423 39.8056 31.8799 39.6276C31.7174 39.4496 31.5246 39.3085 31.3124 39.2124C31.1003 39.1163 30.8729 39.067 30.6434 39.0674C30.1801 39.0674 29.7359 39.2692 29.4082 39.6286C29.0806 39.9879 28.8964 40.4753 28.8962 40.9836V46.0249C27.0112 46.0229 24.3472 46.0259 22.214 46.0297V40.9836C22.214 40.475 22.0299 39.9873 21.7021 39.6276C21.3744 39.268 20.9299 39.0659 20.4664 39.0659C20.0029 39.0659 19.5584 39.268 19.2306 39.6276C18.9029 39.9873 18.7188 40.475 18.7188 40.9836V46.0375L0.649902 73.8976H13.0974L18.7188 65.2303V73.8976H22.214V67.8725H28.8962V73.8976H32.3923V49.9476Z" fill="#FF5D3E"/>
</svg>
