<svg width="20" height="20" viewBox="0 0 20 20" fill="none" xmlns="http://www.w3.org/2000/svg">
<path d="M14.8958 6.44535C14.8958 5.11886 13.8446 4.04017 12.552 4.04017C11.2594 4.04017 10.2083 5.11886 10.2083 6.44535C10.2083 6.72682 10.2582 6.99576 10.345 7.24708H2.39575V2.43671H3.95825V4.8419H5.52075V0.833252H0.833252V13.6609C0.833252 14.9625 1.59428 16.0829 2.68204 16.5852L1.31257 18.6938L2.61262 19.5833L4.37615 16.8678H16.0404L17.8043 19.5829L19.1043 18.6934L17.7348 16.5848C18.8222 16.0829 19.5833 14.9625 19.5833 13.6609V7.24708H14.759C14.8458 6.99576 14.8958 6.72682 14.8958 6.44535ZM11.7708 6.44535C11.7708 6.00319 12.1211 5.64362 12.552 5.64362C12.9829 5.64362 13.3333 6.00319 13.3333 6.44535C13.3333 6.88752 12.9829 7.24708 12.552 7.24708C12.1211 7.24708 11.7708 6.88752 11.7708 6.44535ZM18.0208 13.6609C18.0208 14.5452 17.32 15.2644 16.4583 15.2644H3.95825C3.09651 15.2644 2.39575 14.5452 2.39575 13.6609V12.0575H18.0208V13.6609ZM18.0208 10.454H2.39575V8.85054H18.0208V10.454Z" fill="#9691A4"/>
<path d="M17.2395 0.833252C15.9469 0.833252 14.8958 1.91195 14.8958 3.23844C14.8958 4.56493 15.9469 5.64362 17.2395 5.64362C18.5321 5.64362 19.5833 4.56493 19.5833 3.23844C19.5833 1.91195 18.5321 0.833252 17.2395 0.833252ZM17.2395 4.04017C16.8086 4.04017 16.4583 3.6806 16.4583 3.23844C16.4583 2.79627 16.8086 2.43671 17.2395 2.43671C17.6704 2.43671 18.0208 2.79627 18.0208 3.23844C18.0208 3.6806 17.6704 4.04017 17.2395 4.04017Z" fill="#9691A4"/>
</svg>
