<svg width="20" height="20" viewBox="0 0 20 20" fill="none" xmlns="http://www.w3.org/2000/svg">
<path d="M18.3984 10.0039V4.41406C18.3984 3.12172 17.347 2.07031 16.0547 2.07031H3.90625C2.61391 2.07031 1.5625 3.12172 1.5625 4.41406V10.0172C0.653203 10.3397 0 11.2081 0 12.2266V16.5234H1.5625V17.9297H3.125V16.5234H16.875V17.9297H18.4375V16.5234H20V12.2266C20 11.1936 19.328 10.3152 18.3984 10.0039ZM3.125 4.41406C3.125 3.98328 3.47547 3.63281 3.90625 3.63281H16.0547C16.4855 3.63281 16.8359 3.98328 16.8359 4.41406V9.88281H16.0156V9.10156C16.0156 7.80922 14.9642 6.75781 13.6719 6.75781H11.5625C10.9627 6.75781 10.415 6.98457 10 7.35652C9.585 6.98457 9.0373 6.75781 8.4375 6.75781H6.25C4.95766 6.75781 3.90625 7.80922 3.90625 9.10156V9.88281H3.125V4.41406ZM14.4531 9.10156V9.88281H10.7812V9.10156C10.7812 8.67078 11.1317 8.32031 11.5625 8.32031H13.6719C14.1027 8.32031 14.4531 8.67078 14.4531 9.10156ZM9.21875 9.10156V9.88281H5.46875V9.10156C5.46875 8.67078 5.81922 8.32031 6.25 8.32031H8.4375C8.86828 8.32031 9.21875 8.67078 9.21875 9.10156ZM18.4375 14.9609H1.5625V12.2266C1.5625 11.7958 1.91297 11.4453 2.34375 11.4453H17.6562C18.087 11.4453 18.4375 11.7958 18.4375 12.2266V14.9609Z" fill="#9691A4"/>
</svg>
