<svg width="20" height="20" viewBox="0 0 20 20" fill="none" xmlns="http://www.w3.org/2000/svg">
<path fill-rule="evenodd" clip-rule="evenodd" d="M2.7408 3.86705C2.86468 3.54543 3.17378 3.33325 3.51844 3.33325H11.8518C12.1103 3.33325 12.3542 3.45323 12.5119 3.65802L15.9654 8.14094H16.4814C17.2039 8.14094 17.8902 8.4393 18.3911 8.9595C18.891 9.47863 19.1666 10.1762 19.1666 10.8974V14.7435C19.1666 14.9645 19.0788 15.1765 18.9225 15.3328C18.7662 15.489 18.5543 15.5768 18.3333 15.5768L17.189 15.5768C16.848 16.6778 15.8492 17.4999 14.6295 17.4999C13.4099 17.4999 12.4111 16.6778 12.0701 15.5768H7.92972C7.58877 16.6778 6.58993 17.4999 5.37028 17.4999C4.15063 17.4999 3.15179 16.6778 2.81085 15.5768L1.66659 15.5768C1.44557 15.5768 1.23361 15.489 1.07733 15.3328C0.921049 15.1765 0.833252 14.9645 0.833252 14.7435V8.97428C0.833252 8.87186 0.852132 8.77032 0.888946 8.67474L2.7408 3.86705ZM2.81085 13.9102C3.15179 12.8092 4.15063 11.9871 5.37028 11.9871C6.58993 11.9871 7.58877 12.8092 7.92972 13.9102H12.0701C12.4111 12.8092 13.4099 11.9871 14.6295 11.9871C15.8492 11.9871 16.848 12.8092 17.189 13.9102H17.4999V10.8974C17.4999 10.5984 17.3853 10.3177 17.1906 10.1156C16.9969 9.91448 16.7412 9.80761 16.4814 9.80761H2.49992V13.9102H2.81085ZM2.88059 8.14094H9.16658V4.99992H4.09047L2.88059 8.14094ZM10.8333 4.99992V8.14094H13.8616L11.4418 4.99992H10.8333ZM5.37028 13.6538C4.83713 13.6538 4.35176 14.1117 4.35176 14.7435C4.35176 15.3753 4.83713 15.8333 5.37028 15.8333C5.90343 15.8333 6.3888 15.3753 6.3888 14.7435C6.3888 14.1117 5.90343 13.6538 5.37028 13.6538ZM14.6295 13.6538C14.0964 13.6538 13.611 14.1117 13.611 14.7435C13.611 15.3753 14.0964 15.8333 14.6295 15.8333C15.1627 15.8333 15.6481 15.3753 15.6481 14.7435C15.6481 14.1117 15.1627 13.6538 14.6295 13.6538Z" fill="#9691A4"/>
</svg>
