<svg width="12" height="12" viewBox="0 0 12 12" fill="none" xmlns="http://www.w3.org/2000/svg">
<path fill-rule="evenodd" clip-rule="evenodd" d="M6.22375 1.90871C5.07568 1.86216 3.95511 2.18863 3.07072 2.81605C2.18757 3.4426 1.60643 4.32072 1.41286 5.27703C1.21965 6.23156 1.42083 7.22078 1.99157 8.06489C2.09315 8.21512 2.11908 8.40405 2.06173 8.5761L1.62579 9.8839L3.37027 9.51273C3.49725 9.48571 3.62963 9.50183 3.74642 9.55853C4.74634 10.044 5.91694 10.1922 7.03685 9.97037C8.15663 9.74854 9.13296 9.17546 9.79296 8.37476C10.4512 7.5762 10.7523 6.60466 10.6578 5.63974C10.5632 4.67389 10.076 3.75643 9.26453 3.06428C8.45153 2.37084 7.3718 1.95526 6.22375 1.90871ZM0.717305 11.2492C0.77295 11.2523 0.828037 11.2474 0.881058 11.2351L3.42259 10.6944C4.61245 11.2234 5.96773 11.3715 7.26357 11.1148C8.62746 10.8446 9.84928 10.1407 10.6932 9.11682C11.5389 8.09082 11.9451 6.81444 11.8189 5.526C11.6928 4.2385 11.0462 3.05053 10.0216 2.17664C8.99857 1.30402 7.66493 0.799515 6.27101 0.742998C4.87711 0.686481 3.5001 1.08099 2.39566 1.86452C1.28999 2.64894 0.526411 3.77576 0.269384 5.04558C0.0311945 6.22234 0.247234 7.42908 0.867313 8.47001L0.19972 10.4728C0.18159 10.5241 0.170521 10.5783 0.167433 10.6339C0.163372 10.7055 0.172709 10.7762 0.193835 10.8427C0.219296 10.9235 0.261204 10.9954 0.314981 11.0554C0.368646 11.1156 0.435393 11.1653 0.512779 11.1996C0.576531 11.228 0.64571 11.2452 0.717305 11.2492Z" fill="#9691A4"/>
</svg>
