<svg width="14" height="16" viewBox="0 0 14 16" fill="none" xmlns="http://www.w3.org/2000/svg">
<path fill-rule="evenodd" clip-rule="evenodd" d="M2.5 12.4992C2.08579 12.4992 1.75 12.835 1.75 13.2492C1.75 13.6635 2.08579 13.9992 2.5 13.9992C2.91421 13.9992 3.25 13.6635 3.25 13.2492C3.25 12.835 2.91421 12.4992 2.5 12.4992ZM0.25 13.2492C0.25 12.0066 1.25736 10.9992 2.5 10.9992C3.74264 10.9992 4.75 12.0066 4.75 13.2492C4.75 14.4919 3.74264 15.4992 2.5 15.4992C1.25736 15.4992 0.25 14.4919 0.25 13.2492Z" fill="white"/>
<path fill-rule="evenodd" clip-rule="evenodd" d="M11.5 1.99927C11.0858 1.99927 10.75 2.33505 10.75 2.74927C10.75 3.16348 11.0858 3.49927 11.5 3.49927C11.9142 3.49927 12.25 3.16348 12.25 2.74927C12.25 2.33505 11.9142 1.99927 11.5 1.99927ZM9.25 2.74927C9.25 1.50663 10.2574 0.499268 11.5 0.499268C12.7426 0.499268 13.75 1.50663 13.75 2.74927C13.75 3.99191 12.7426 4.99927 11.5 4.99927C10.2574 4.99927 9.25 3.99191 9.25 2.74927Z" fill="white"/>
<path fill-rule="evenodd" clip-rule="evenodd" d="M4.37501 3.49924C3.87773 3.49924 3.40081 3.69678 3.04918 4.04841C2.69755 4.40005 2.50001 4.87696 2.50001 5.37424C2.50001 5.87152 2.69755 6.34843 3.04918 6.70007C3.40081 7.0517 3.87773 7.24924 4.37501 7.24924H10.375C11.2701 7.24924 12.1286 7.60482 12.7615 8.23776C13.3944 8.87069 13.75 9.72914 13.75 10.6242C13.75 11.5193 13.3944 12.3778 12.7615 13.0107C12.1286 13.6437 11.2701 13.9992 10.375 13.9992H7.00001C6.58579 13.9992 6.25001 13.6635 6.25001 13.2492C6.25001 12.835 6.58579 12.4992 7.00001 12.4992H10.375C10.8723 12.4992 11.3492 12.3017 11.7008 11.9501C12.0525 11.5984 12.25 11.1215 12.25 10.6242C12.25 10.127 12.0525 9.65005 11.7008 9.29842C11.3492 8.94678 10.8723 8.74924 10.375 8.74924H4.37501C3.4799 8.74924 2.62146 8.39366 1.98852 7.76073C1.35559 7.12779 1.00001 6.26935 1.00001 5.37424C1.00001 4.47913 1.35559 3.62069 1.98852 2.98775C2.62146 2.35482 3.4799 1.99924 4.37501 1.99924H7.00001C7.41422 1.99924 7.75001 2.33503 7.75001 2.74924C7.75001 3.16345 7.41422 3.49924 7.00001 3.49924H4.37501Z" fill="white"/>
</svg>
