<svg width="34" height="21" viewBox="0 0 34 21" fill="none" xmlns="http://www.w3.org/2000/svg">
<path d="M28.8764 0H5.63182C4.39927 0.00101328 3.21758 0.370088 2.34603 1.02625C1.47448 1.6824 0.984256 2.57205 0.98291 3.5V17.5C0.984256 18.4279 1.47448 19.3176 2.34603 19.9738C3.21758 20.6299 4.39927 20.999 5.63182 21H28.8764C30.1089 20.999 31.2906 20.6299 32.1622 19.9738C33.0337 19.3176 33.5239 18.4279 33.5253 17.5V3.5C33.5239 2.57205 33.0337 1.6824 32.1622 1.02625C31.2906 0.370088 30.1089 0.00101328 28.8764 0ZM23.0652 3.5C23.7548 3.5 24.4289 3.65395 25.0023 3.94239C25.5757 4.23083 26.0226 4.6408 26.2865 5.12046C26.5504 5.60011 26.6195 6.12791 26.4849 6.63711C26.3504 7.14631 26.0183 7.61404 25.5307 7.98116C25.0431 8.34827 24.4218 8.59828 23.7455 8.69956C23.0691 8.80085 22.368 8.74886 21.7309 8.55018C21.0938 8.3515 20.5493 8.01505 20.1662 7.58337C19.783 7.15169 19.5786 6.64418 19.5786 6.125C19.5795 5.42903 19.9472 4.76177 20.6008 4.26964C21.2545 3.77752 22.1408 3.50072 23.0652 3.5ZM5.63182 19.25C5.01534 19.25 4.4241 19.0656 3.98818 18.7374C3.55226 18.4092 3.30737 17.9641 3.30737 17.5V13.8015L10.1965 9.19133C10.8611 8.74752 11.7256 8.51119 12.6136 8.53049C13.5017 8.5498 14.3466 8.82329 14.9761 9.29523L19.694 12.8395L11.1793 19.25H5.63182ZM31.2008 17.5C31.2008 17.9641 30.9559 18.4092 30.52 18.7374C30.0841 19.0656 29.4929 19.25 28.8764 19.25H14.4669L23.2868 12.6098C23.9112 12.21 24.7037 11.9898 25.5234 11.9882C26.3431 11.9866 27.1371 12.2037 27.7643 12.6011L31.2008 14.7569V17.5Z" fill="#F6E2C3"/>
</svg>
