<svg width="20" height="16" viewBox="0 0 20 16" fill="none" xmlns="http://www.w3.org/2000/svg">
<path fill-rule="evenodd" clip-rule="evenodd" d="M6.90468 6.33333C6.28264 6.33333 5.83325 6.81078 5.83325 7.33333V12.8333C5.83325 13.3559 6.28264 13.8333 6.90468 13.8333H16.4285C17.0505 13.8333 17.4999 13.3559 17.4999 12.8333V7.33333C17.4999 6.81078 17.0505 6.33333 16.4285 6.33333H6.90468ZM4.16658 7.33333C4.16658 5.83084 5.42278 4.66667 6.90468 4.66667H16.4285C17.9104 4.66667 19.1666 5.83084 19.1666 7.33333V12.8333C19.1666 14.3358 17.9104 15.5 16.4285 15.5H6.90468C5.42278 15.5 4.16658 14.3358 4.16658 12.8333V7.33333Z" fill="#9691A4"/>
<path fill-rule="evenodd" clip-rule="evenodd" d="M12.0833 8.83333C11.3929 8.83333 10.8333 9.39298 10.8333 10.0833C10.8333 10.7737 11.3929 11.3333 12.0833 11.3333C12.7736 11.3333 13.3333 10.7737 13.3333 10.0833C13.3333 9.39298 12.7736 8.83333 12.0833 8.83333ZM9.16658 10.0833C9.16658 8.4725 10.4724 7.16667 12.0833 7.16667C13.6941 7.16667 14.9999 8.4725 14.9999 10.0833C14.9999 11.6942 13.6941 13 12.0833 13C10.4724 13 9.16658 11.6942 9.16658 10.0833Z" fill="#9691A4"/>
<path fill-rule="evenodd" clip-rule="evenodd" d="M1.64659 1.2699C2.16231 0.773514 2.85522 0.5 3.57135 0.5H13.0952C13.8113 0.5 14.5042 0.773515 15.0199 1.2699C15.5367 1.76733 15.8333 2.44892 15.8333 3.16667V5C15.8333 5.46024 15.4602 5.83333 14.9999 5.83333C14.5397 5.83333 14.1666 5.46024 14.1666 5V3.16667C14.1666 2.91195 14.0618 2.66092 13.8641 2.47071C13.6654 2.27946 13.3894 2.16667 13.0952 2.16667H3.57135C3.27713 2.16667 3.00107 2.27946 2.80237 2.47071C2.60475 2.66092 2.49992 2.91195 2.49992 3.16667V8.66667C2.49992 8.92138 2.60475 9.17242 2.80237 9.36262C3.00107 9.55387 3.27713 9.66667 3.57135 9.66667H4.64278C5.10301 9.66667 5.47611 10.0398 5.47611 10.5C5.47611 10.9602 5.10301 11.3333 4.64278 11.3333H3.57135C2.85522 11.3333 2.16231 11.0598 1.64659 10.5634C1.12978 10.066 0.833252 9.38441 0.833252 8.66667V3.16667C0.833252 2.44892 1.12978 1.76733 1.64659 1.2699Z" fill="#9691A4"/>
</svg>
