<svg width="18" height="18" viewBox="0 0 18 18" fill="none" xmlns="http://www.w3.org/2000/svg">
<path fill-rule="evenodd" clip-rule="evenodd" d="M3.75 3.75004C3.55109 3.75004 3.36032 3.82905 3.21967 3.96971C3.08356 4.10582 3.00516 4.28887 3.00025 4.48081C3.17274 7.21376 4.33619 9.79033 6.27295 11.7271C8.20971 13.6638 10.7863 14.8273 13.5192 14.9998C13.7112 14.9949 13.8942 14.9165 14.0303 14.7804C14.171 14.6397 14.25 14.4489 14.25 14.25V11.7578L11.5645 10.6836L10.7681 12.0109C10.5673 12.3456 10.1433 12.4703 9.79326 12.2977C8.01656 11.4214 6.57859 9.98348 5.70235 8.20677C5.52971 7.8567 5.65443 7.43274 5.98913 7.23192L7.31643 6.43554L6.24223 3.75004H3.75ZM2.15901 2.90905C2.58097 2.48709 3.15326 2.25004 3.75 2.25004H6.75C7.05668 2.25004 7.33246 2.43675 7.44636 2.72149L8.94636 6.47149C9.08307 6.81328 8.95153 7.20376 8.63587 7.39316L7.38037 8.14646C7.99827 9.15417 8.84586 10.0018 9.85358 10.6197L10.6069 9.36416C10.7963 9.04851 11.1868 8.91696 11.5285 9.05368L15.2785 10.5537C15.5633 10.6676 15.75 10.9434 15.75 11.25V14.25C15.75 14.8468 15.5129 15.4191 15.091 15.841C14.669 16.263 14.0967 16.5 13.5 16.5C13.4848 16.5 13.4697 16.4996 13.4545 16.4987C10.3461 16.3098 7.41432 14.9898 5.21229 12.7877C3.01027 10.5857 1.69028 7.65393 1.50138 4.54553C1.50046 4.53038 1.5 4.51521 1.5 4.50004C1.5 3.9033 1.73705 3.331 2.15901 2.90905Z" fill="#9691A4"/>
<path fill-rule="evenodd" clip-rule="evenodd" d="M10.5 5.25004C10.5 4.83582 10.8358 4.50004 11.25 4.50004C11.8467 4.50004 12.419 4.73709 12.841 5.15905C13.2629 5.581 13.5 6.1533 13.5 6.75004C13.5 7.16425 13.1642 7.50004 12.75 7.50004C12.3358 7.50004 12 7.16425 12 6.75004C12 6.55112 11.921 6.36036 11.7803 6.21971C11.6397 6.07905 11.4489 6.00004 11.25 6.00004C10.8358 6.00004 10.5 5.66425 10.5 5.25004Z" fill="#9691A4"/>
<path fill-rule="evenodd" clip-rule="evenodd" d="M10.5 2.25C10.5 1.83579 10.8358 1.5 11.25 1.5C12.6424 1.5 13.9777 2.05312 14.9623 3.03769C15.9469 4.02226 16.5 5.35761 16.5 6.75C16.5 7.16421 16.1642 7.5 15.75 7.5C15.3358 7.5 15 7.16421 15 6.75C15 5.75544 14.6049 4.80161 13.9017 4.09835C13.1984 3.39509 12.2446 3 11.25 3C10.8358 3 10.5 2.66421 10.5 2.25Z" fill="#9691A4"/>
</svg>
