<svg width="24" height="24" viewBox="0 0 24 24" fill="none" xmlns="http://www.w3.org/2000/svg">
<path d="M8.06934 6.4552H9.47559V7.86145H8.06934V6.4552Z" fill="#FD5631"/>
<path d="M8.06934 9.68298H9.47559V11.0892H8.06934V9.68298Z" fill="#FD5631"/>
<path d="M14.5244 9.68298H15.9307V11.0892H14.5244V9.68298Z" fill="#FD5631"/>
<path d="M17.7524 9.68298H19.1587V11.0892H17.7524V9.68298Z" fill="#FD5631"/>
<path d="M14.5244 12.9108H15.9307V14.317H14.5244V12.9108Z" fill="#FD5631"/>
<path d="M17.7524 12.9108H19.1587V14.317H17.7524V12.9108Z" fill="#FD5631"/>
<path d="M14.5244 16.1383H15.9307V17.5446H14.5244V16.1383Z" fill="#FD5631"/>
<path d="M17.7524 16.1383H19.1587V17.5446H17.7524V16.1383Z" fill="#FD5631"/>
<path d="M14.5244 19.366H15.9307V20.7722H14.5244V19.366Z" fill="#FD5631"/>
<path d="M17.7524 19.366H19.1587V20.7722H17.7524V19.366Z" fill="#FD5631"/>
<path d="M4.84131 9.68298H6.24755V11.0892H4.84131V9.68298Z" fill="#FD5631"/>
<path d="M8.06934 12.9108H9.47559V14.317H8.06934V12.9108Z" fill="#FD5631"/>
<path d="M4.84131 12.9108H6.24755V14.317H4.84131V12.9108Z" fill="#FD5631"/>
<path d="M8.06934 16.1383H9.47559V17.5446H8.06934V16.1383Z" fill="#FD5631"/>
<path d="M4.84131 16.1383H6.24755V17.5446H4.84131V16.1383Z" fill="#FD5631"/>
<path d="M22.3861 22.5938V6.45534H12.7031V3.10078L11.0893 3.36975V0H3.22767V4.68005L1.61386 4.94902V22.5938H0V24H24V22.5938H22.3861ZM20.9799 7.86159V22.5938H12.7031V7.86159H20.9799ZM4.63392 1.40625H9.68302V3.60413L4.63392 4.44567V1.40625ZM3.02011 6.1403L11.2969 4.76081V6.45534V22.5938H9.47545V19.3661H4.84153V22.5938H3.02011V6.1403ZM8.0692 22.5938H6.24778V20.7723H8.0692V22.5938Z" fill="#FD5631"/>
</svg>
