<svg width="18" height="19" viewBox="0 0 18 19" fill="none" xmlns="http://www.w3.org/2000/svg">
<g clip-path="url(#clip0)">
<path d="M12.307 8.32764H8.8534C8.12921 8.32764 7.54004 8.91681 7.54004 9.64091V13.152C7.54004 13.8764 8.12921 14.4656 8.8534 14.4656H12.307C13.0312 14.4656 13.6204 13.8764 13.6204 13.152V9.64091C13.6204 8.91681 13.0312 8.32764 12.307 8.32764ZM12.9999 13.1519C12.9999 13.5341 12.6891 13.8448 12.3071 13.8448H8.85349C8.47162 13.8448 8.16076 13.5341 8.16076 13.1519V9.64082C8.16076 9.25895 8.47162 8.94827 8.85349 8.94827H12.3071C12.689 8.94827 12.9999 9.25895 12.9999 9.64082V13.1519Z" fill="#9691A4" stroke="#9691A4" stroke-width="0.5"/>
<path d="M8.92801 3.91382H5.03748C4.31329 3.91382 3.72412 4.50299 3.72412 5.22736V9.11753C3.72412 9.8419 4.31329 10.4311 5.03748 10.4311H7.78013C7.95142 10.4311 8.09044 10.2921 8.09044 10.1208C8.09044 9.94937 7.95142 9.81044 7.78013 9.81044H5.03748C4.65561 9.81044 4.34475 9.49976 4.34475 9.11762V5.22736C4.34475 4.84522 4.65552 4.53454 5.03748 4.53454H8.92801C9.30988 4.53454 9.62074 4.84522 9.62074 5.22736V8.4818C9.62074 8.65328 9.75976 8.79212 9.93106 8.79212C10.1024 8.79212 10.2414 8.65328 10.2414 8.4818V5.22736C10.2414 4.50299 9.6522 3.91382 8.92801 3.91382Z" fill="#9691A4" stroke="#9691A4" stroke-width="0.5"/>
<path d="M1.24147 2.65942C1.07017 2.65942 0.931152 2.79826 0.931152 2.96974V16.2546C0.931152 16.426 1.07017 16.5649 1.24147 16.5649C1.41276 16.5649 1.55178 16.4261 1.55178 16.2546V2.96974C1.55187 2.79826 1.41285 2.65942 1.24147 2.65942Z" fill="#9691A4" stroke="#9691A4" stroke-width="0.5"/>
<path d="M15.7926 16.9484H2.19752C2.02623 16.9484 1.88721 17.0873 1.88721 17.2587C1.88721 17.4302 2.02623 17.569 2.19752 17.569H15.7926C15.9641 17.569 16.103 17.4301 16.103 17.2587C16.103 17.0872 15.9639 16.9484 15.7926 16.9484Z" fill="#9691A4" stroke="#9691A4" stroke-width="0.5"/>
<path d="M16.7586 2.40027C16.5873 2.40027 16.4482 2.53911 16.4482 2.71058V16.28C16.4482 16.4515 16.5873 16.5903 16.7586 16.5903C16.9299 16.5903 17.0689 16.4515 17.0689 16.28V2.71058C17.0689 2.53911 16.9299 2.40027 16.7586 2.40027Z" fill="#9691A4" stroke="#9691A4" stroke-width="0.5"/>
<path d="M15.792 1.43103H2.22242C2.05113 1.43103 1.91211 1.56987 1.91211 1.74135C1.91211 1.91282 2.05113 2.05166 2.22242 2.05166H15.792C15.9635 2.05166 16.1023 1.91282 16.1023 1.74135C16.1023 1.56987 15.9633 1.43103 15.792 1.43103Z" fill="#9691A4" stroke="#9691A4" stroke-width="0.5"/>
<path d="M2.17239 0.5H0.310315C0.139019 0.5 0 0.638837 0 0.810315V2.67239C0 2.84386 0.139019 2.9827 0.310315 2.9827H2.17239C2.34368 2.9827 2.4827 2.84386 2.4827 2.67239V0.810315C2.48279 0.638837 2.34368 0.5 2.17239 0.5ZM1.86207 2.36207H0.620721V1.12072H1.86207V2.36207Z" fill="#9691A4" stroke="#9691A4" stroke-width="0.5"/>
<path d="M17.69 0.5H15.8279C15.6566 0.5 15.5176 0.638837 15.5176 0.810315V2.67239C15.5176 2.84386 15.6566 2.9827 15.8279 2.9827H17.69C17.8613 2.9827 18.0003 2.84386 18.0003 2.67239V0.810315C18.0003 0.638837 17.8613 0.5 17.69 0.5ZM17.3796 2.36207H16.1383V1.12072H17.3796V2.36207Z" fill="#9691A4" stroke="#9691A4" stroke-width="0.5"/>
<path d="M2.17239 16.0173H0.310315C0.139019 16.0173 0 16.1562 0 16.3276V18.1897C0 18.3612 0.139019 18.5 0.310315 18.5H2.17239C2.34368 18.5 2.4827 18.3612 2.4827 18.1897V16.3276C2.48279 16.1562 2.34368 16.0173 2.17239 16.0173ZM1.86207 17.8794H0.620721V16.6381H1.86207V17.8794Z" fill="#9691A4" stroke="#9691A4" stroke-width="0.5"/>
<path d="M17.69 16.0173H15.8279C15.6566 16.0173 15.5176 16.1562 15.5176 16.3276V18.1897C15.5176 18.3612 15.6566 18.5 15.8279 18.5H17.69C17.8613 18.5 18.0003 18.3612 18.0003 18.1897V16.3276C18.0003 16.1562 17.8613 16.0173 17.69 16.0173ZM17.3796 17.8794H16.1383V16.6381H17.3796V17.8794Z" fill="#9691A4" stroke="#9691A4" stroke-width="0.5"/>
</g>
<defs>
<clipPath id="clip0">
<rect width="18" height="18" fill="white" transform="translate(0 0.5)"/>
</clipPath>
</defs>
</svg>
