<svg width="20" height="20" viewBox="0 0 20 20" fill="none" xmlns="http://www.w3.org/2000/svg">
<path fill-rule="evenodd" clip-rule="evenodd" d="M3.33325 9.99999C3.33325 9.53975 3.70635 9.16665 4.16659 9.16665H15.8333C16.2935 9.16665 16.6666 9.53975 16.6666 9.99999C16.6666 10.4602 16.2935 10.8333 15.8333 10.8333H4.16659C3.70635 10.8333 3.33325 10.4602 3.33325 9.99999Z" fill="#666276"/>
<path fill-rule="evenodd" clip-rule="evenodd" d="M16.4225 9.41073C16.7479 9.73617 16.7479 10.2638 16.4225 10.5892L13.0892 13.9226C12.7637 14.248 12.2361 14.248 11.9106 13.9226C11.5852 13.5971 11.5852 13.0695 11.9106 12.7441L15.244 9.41073C15.5694 9.08529 16.0971 9.08529 16.4225 9.41073Z" fill="#666276"/>
<path fill-rule="evenodd" clip-rule="evenodd" d="M11.9106 6.07739C12.2361 5.75195 12.7637 5.75195 13.0892 6.07739L16.4225 9.41073C16.7479 9.73617 16.7479 10.2638 16.4225 10.5892C16.0971 10.9147 15.5694 10.9147 15.244 10.5892L11.9106 7.2559C11.5852 6.93046 11.5852 6.40283 11.9106 6.07739Z" fill="#666276"/>
</svg>
