<svg width="19" height="19" viewBox="0 0 19 19" fill="none" xmlns="http://www.w3.org/2000/svg">
<g clip-path="url(#clip0)">
<path d="M13.9062 6.30089C13.9062 5.10705 12.9602 4.13622 11.7969 4.13622C10.6335 4.13622 9.6875 5.10705 9.6875 6.30089C9.6875 6.55421 9.73248 6.79626 9.81058 7.02245H2.65625V2.69311H4.0625V4.85778H5.46875V1.25H1.25V12.7949C1.25 13.9664 1.93493 14.9747 2.91391 15.4267L1.68139 17.3245L2.85143 18.125L4.43861 15.6811H14.9364L16.5239 18.1246L17.694 17.3242L16.4614 15.4264C17.4401 14.9747 18.125 13.9664 18.125 12.7949V7.02245H13.7832C13.8613 6.79626 13.9062 6.55421 13.9062 6.30089ZM11.0938 6.30089C11.0938 5.90294 11.4091 5.57934 11.7969 5.57934C12.1847 5.57934 12.5 5.90294 12.5 6.30089C12.5 6.69884 12.1847 7.02245 11.7969 7.02245C11.4091 7.02245 11.0938 6.69884 11.0938 6.30089ZM16.7188 12.7949C16.7188 13.5908 16.0881 14.238 15.3125 14.238H4.0625C3.28693 14.238 2.65625 13.5908 2.65625 12.7949V11.3518H16.7188V12.7949ZM16.7188 9.90867H2.65625V8.46556H16.7188V9.90867Z" fill="#9691A4"/>
<path d="M16.0156 1.25C14.8523 1.25 13.9062 2.22082 13.9062 3.41467C13.9062 4.60851 14.8523 5.57934 16.0156 5.57934C17.179 5.57934 18.125 4.60851 18.125 3.41467C18.125 2.22082 17.179 1.25 16.0156 1.25ZM16.0156 4.13622C15.6278 4.13622 15.3125 3.81262 15.3125 3.41467C15.3125 3.01672 15.6278 2.69311 16.0156 2.69311C16.4034 2.69311 16.7188 3.01672 16.7188 3.41467C16.7188 3.81262 16.4034 4.13622 16.0156 4.13622Z" fill="#9691A4"/>
</g>
<defs>
<clipPath id="clip0">
<rect width="18" height="18" fill="white" transform="translate(0.5 0.5)"/>
</clipPath>
</defs>
</svg>
