<svg width="19" height="19" viewBox="0 0 19 19" fill="none" xmlns="http://www.w3.org/2000/svg">
<g clip-path="url(#clip0)">
<path d="M17.0586 9.50355V4.47266C17.0586 3.30955 16.1123 2.36328 14.9492 2.36328H4.01562C2.85252 2.36328 1.90625 3.30955 1.90625 4.47266V9.51547C1.08788 9.80575 0.5 10.5873 0.5 11.5039V15.3711H1.90625V16.6367H3.3125V15.3711H15.6875V16.6367H17.0938V15.3711H18.5V11.5039C18.5 10.5742 17.8952 9.78368 17.0586 9.50355ZM3.3125 4.47266C3.3125 4.08495 3.62792 3.76953 4.01562 3.76953H14.9492C15.3369 3.76953 15.6523 4.08495 15.6523 4.47266V9.39453H14.9141V8.69141C14.9141 7.5283 13.9678 6.58203 12.8047 6.58203H10.9062C10.3664 6.58203 9.8735 6.78611 9.5 7.12087C9.1265 6.78611 8.63357 6.58203 8.09375 6.58203H6.125C4.96189 6.58203 4.01562 7.5283 4.01562 8.69141V9.39453H3.3125V4.47266ZM13.5078 8.69141V9.39453H10.2031V8.69141C10.2031 8.3037 10.5185 7.98828 10.9062 7.98828H12.8047C13.1924 7.98828 13.5078 8.3037 13.5078 8.69141ZM8.79688 8.69141V9.39453H5.42188V8.69141C5.42188 8.3037 5.7373 7.98828 6.125 7.98828H8.09375C8.48145 7.98828 8.79688 8.3037 8.79688 8.69141ZM17.0938 13.9648H1.90625V11.5039C1.90625 11.1162 2.22167 10.8008 2.60938 10.8008H16.3906C16.7783 10.8008 17.0938 11.1162 17.0938 11.5039V13.9648Z" fill="#9691A4"/>
</g>
<defs>
<clipPath id="clip0">
<rect width="18" height="18" fill="white" transform="translate(0.5 0.5)"/>
</clipPath>
</defs>
</svg>
