<svg width="19" height="19" viewBox="0 0 19 19" fill="none" xmlns="http://www.w3.org/2000/svg">
<path fill-rule="evenodd" clip-rule="evenodd" d="M2.96679 3.98042C3.07829 3.69096 3.35647 3.5 3.66667 3.5H11.1667C11.3993 3.5 11.6188 3.60798 11.7608 3.79229L14.869 7.82692H15.3333C15.9836 7.82692 16.6012 8.09544 17.0521 8.56362C17.502 9.03084 17.75 9.65869 17.75 10.3077V13.7692C17.75 13.9681 17.671 14.1589 17.5303 14.2996C17.3897 14.4402 17.1989 14.5192 17 14.5192L15.9702 14.5192C15.6633 15.5101 14.7644 16.25 13.6667 16.25C12.569 16.25 11.67 15.5101 11.3632 14.5192H7.63682C7.32997 15.5101 6.43101 16.25 5.33333 16.25C4.23564 16.25 3.33668 15.5101 3.02983 14.5192L2 14.5192C1.80109 14.5192 1.61032 14.4402 1.46967 14.2996C1.32902 14.1589 1.25 13.9681 1.25 13.7692V8.57692C1.25 8.48475 1.26699 8.39336 1.30012 8.30734L2.96679 3.98042ZM3.02983 13.0192C3.33668 12.0283 4.23564 11.2885 5.33333 11.2885C6.43101 11.2885 7.32997 12.0283 7.63682 13.0192H11.3632C11.67 12.0283 12.569 11.2885 13.6667 11.2885C14.7644 11.2885 15.6633 12.0283 15.9702 13.0192H16.25V10.3077C16.25 10.0386 16.1468 9.78603 15.9716 9.60409C15.7973 9.4231 15.5671 9.32692 15.3333 9.32692H2.75V13.0192H3.02983ZM3.0926 7.82692H8.75V5H4.18149L3.0926 7.82692ZM10.25 5V7.82692H12.9755L10.7977 5H10.25ZM5.33333 12.7885C4.85349 12.7885 4.41666 13.2006 4.41666 13.7692C4.41666 14.3378 4.85349 14.75 5.33333 14.75C5.81316 14.75 6.24999 14.3378 6.24999 13.7692C6.24999 13.2006 5.81316 12.7885 5.33333 12.7885ZM13.6667 12.7885C13.1868 12.7885 12.75 13.2006 12.75 13.7692C12.75 14.3378 13.1868 14.75 13.6667 14.75C14.1465 14.75 14.5833 14.3378 14.5833 13.7692C14.5833 13.2006 14.1465 12.7885 13.6667 12.7885Z" fill="#9691A4"/>
</svg>
