<svg width="20" height="20" viewBox="0 0 20 20" fill="none" xmlns="http://www.w3.org/2000/svg">
<path fill-rule="evenodd" clip-rule="evenodd" d="M6.90492 8.33333C6.28288 8.33333 5.8335 8.81078 5.8335 9.33333V14.8333C5.8335 15.3559 6.28288 15.8333 6.90492 15.8333H16.4287C17.0508 15.8333 17.5002 15.3559 17.5002 14.8333V9.33333C17.5002 8.81078 17.0508 8.33333 16.4287 8.33333H6.90492ZM4.16683 9.33333C4.16683 7.83084 5.42302 6.66667 6.90492 6.66667H16.4287C17.9106 6.66667 19.1668 7.83084 19.1668 9.33333V14.8333C19.1668 16.3358 17.9106 17.5 16.4287 17.5H6.90492C5.42302 17.5 4.16683 16.3358 4.16683 14.8333V9.33333Z" fill="#9691A4"/>
<path fill-rule="evenodd" clip-rule="evenodd" d="M12.0835 10.8333C11.3931 10.8333 10.8335 11.393 10.8335 12.0833C10.8335 12.7737 11.3931 13.3333 12.0835 13.3333C12.7739 13.3333 13.3335 12.7737 13.3335 12.0833C13.3335 11.393 12.7739 10.8333 12.0835 10.8333ZM9.16683 12.0833C9.16683 10.4725 10.4727 9.16667 12.0835 9.16667C13.6943 9.16667 15.0002 10.4725 15.0002 12.0833C15.0002 13.6942 13.6943 15 12.0835 15C10.4727 15 9.16683 13.6942 9.16683 12.0833Z" fill="#9691A4"/>
<path fill-rule="evenodd" clip-rule="evenodd" d="M1.64683 3.2699C2.16255 2.77351 2.85546 2.5 3.57159 2.5H13.0954C13.8115 2.5 14.5044 2.77351 15.0202 3.2699C15.537 3.76733 15.8335 4.44892 15.8335 5.16667V7C15.8335 7.46024 15.4604 7.83333 15.0002 7.83333C14.5399 7.83333 14.1668 7.46024 14.1668 7V5.16667C14.1668 4.91195 14.062 4.66092 13.8644 4.47071C13.6657 4.27946 13.3896 4.16667 13.0954 4.16667H3.57159C3.27737 4.16667 3.00131 4.27946 2.80261 4.47071C2.60499 4.66092 2.50016 4.91195 2.50016 5.16667V10.6667C2.50016 10.9214 2.60499 11.1724 2.80261 11.3626C3.00131 11.5539 3.27737 11.6667 3.57159 11.6667H4.64302C5.10326 11.6667 5.47635 12.0398 5.47635 12.5C5.47635 12.9602 5.10326 13.3333 4.64302 13.3333H3.57159C2.85546 13.3333 2.16255 13.0598 1.64683 12.5634C1.13002 12.066 0.833496 11.3844 0.833496 10.6667V5.16667C0.833496 4.44892 1.13002 3.76733 1.64683 3.2699Z" fill="#9691A4"/>
</svg>
