<svg width="16" height="16" viewBox="0 0 16 16" fill="none" xmlns="http://www.w3.org/2000/svg">
<path fill-rule="evenodd" clip-rule="evenodd" d="M2.13643 2.13643C2.53423 1.73862 3.07377 1.51514 3.63635 1.51514H10.9091C11.2788 1.51514 11.6333 1.662 11.8947 1.92341C12.1562 2.18483 12.303 2.53938 12.303 2.90908V4.42423H12.3636C12.7333 4.42423 13.0879 4.57109 13.3493 4.8325C13.6107 5.09392 13.7576 5.44847 13.7576 5.81817V7.99998C13.7576 8.30917 13.545 8.57778 13.2441 8.64882C12.9431 8.71985 12.6329 8.57467 12.4946 8.29813V5.75756H3.63635C3.36382 5.75756 3.09669 5.70512 2.84847 5.60581V12.3636C2.84847 12.5726 2.93148 12.773 3.07923 12.9207C3.22699 13.0685 3.42739 13.1515 3.63635 13.1515H12.3636C12.3797 13.1515 12.3951 13.1451 12.4065 13.1337C12.4178 13.1224 12.4242 13.107 12.4242 13.0909V10.9091C12.4242 10.5409 12.8759 10.6667 13.2441 10.6667C13.6123 10.6667 13.7576 10.5409 13.7576 10.9091V13.0909C13.7576 13.4606 13.6107 13.8151 13.3493 14.0766C13.0879 14.338 12.7333 14.4848 12.3636 14.4848H3.63635C3.07377 14.4848 2.53423 14.2613 2.13643 13.8635C1.73862 13.4657 1.51514 12.9262 1.51514 12.3636V3.63635C1.51514 3.07377 1.73862 2.53423 2.13643 2.13643ZM2.84847 3.63635C2.84847 3.84531 2.93148 4.04571 3.07923 4.19346C3.22699 4.34122 3.42739 4.42423 3.63635 4.42423H10.9697V2.90908C10.9697 2.893 10.9633 2.87759 10.9519 2.86622C10.9406 2.85486 10.9252 2.84847 10.9091 2.84847H3.63635C3.42739 2.84847 3.22699 2.93148 3.07923 3.07923C2.93148 3.22699 2.84847 3.42739 2.84847 3.63635Z" fill="white"/>
<path fill-rule="evenodd" clip-rule="evenodd" d="M10.9091 8.66665C10.7272 8.66665 10.5343 8.74727 10.3788 8.92217C10.2211 9.09963 10.1212 9.35548 10.1212 9.63635C10.1212 9.91722 10.2211 10.1731 10.3788 10.3505C10.5343 10.5254 10.7272 10.606 10.9091 10.606H13.1515V8.66665H10.9091ZM9.38229 8.03636C9.77238 7.5975 10.3195 7.33332 10.9091 7.33332H13.8182C14.1864 7.33332 14.4848 7.6318 14.4848 7.99998V11.2727C14.4848 11.6409 14.1864 11.9394 13.8182 11.9394H10.9091C10.3195 11.9394 9.77238 11.6752 9.38229 11.2363C8.99447 10.8 8.78786 10.2235 8.78786 9.63635C8.78786 9.04924 8.99447 8.47265 9.38229 8.03636Z" fill="white"/>
</svg>
