<svg width="16" height="16" viewBox="0 0 16 16" fill="none" xmlns="http://www.w3.org/2000/svg">
<path fill-rule="evenodd" clip-rule="evenodd" d="M7.52878 1.52858C7.78913 1.26823 8.21124 1.26823 8.47159 1.52858L14.4716 7.52857C14.6623 7.71924 14.7193 8.00599 14.6161 8.2551C14.5129 8.50422 14.2698 8.66665 14.0002 8.66665H12.6668C12.2987 8.66665 12.0002 8.36817 12.0002 7.99998C12.0002 7.71411 12.1801 7.47026 12.4329 7.37551L8.00018 2.94279L3.56746 7.37551C3.82025 7.47026 4.00018 7.71411 4.00018 7.99998C4.00018 8.36817 3.70171 8.66665 3.33352 8.66665H2.00018C1.73054 8.66665 1.48745 8.50422 1.38426 8.2551C1.28108 8.00599 1.33811 7.71924 1.52878 7.52857L7.52878 1.52858Z" fill="white"/>
<path fill-rule="evenodd" clip-rule="evenodd" d="M3.33351 7.33331C3.7017 7.33331 4.00018 7.63179 4.00018 7.99998L4.00018 12.6666C4.00018 12.8435 4.07041 13.013 4.19544 13.1381C4.32046 13.2631 4.49003 13.3333 4.66684 13.3333H11.3335C11.5103 13.3333 11.6799 13.2631 11.8049 13.1381C11.9299 13.013 12.0002 12.8435 12.0002 12.6666L12.0002 7.99998C12.0002 7.63179 12.2987 7.33331 12.6668 7.33331C13.035 7.33331 13.3335 7.63179 13.3335 7.99998V12.6666C13.3335 13.1971 13.1228 13.7058 12.7477 14.0809C12.3727 14.4559 11.8639 14.6666 11.3335 14.6666H4.66684C4.13641 14.6666 3.6277 14.4559 3.25263 14.0809C2.87756 13.7058 2.66684 13.1971 2.66684 12.6666V7.99998C2.66684 7.63179 2.96532 7.33331 3.33351 7.33331Z" fill="white"/>
<path fill-rule="evenodd" clip-rule="evenodd" d="M6.00019 7.99998C6.00019 7.63179 6.29867 7.33331 6.66686 7.33331H9.33352C9.70171 7.33331 10.0002 7.63179 10.0002 7.99998V10.6666C10.0002 11.0348 9.70171 11.3333 9.33352 11.3333H6.66686C6.29867 11.3333 6.00019 11.0348 6.00019 10.6666V7.99998ZM7.33352 8.66665V9.99998H8.66686V8.66665H7.33352Z" fill="white"/>
</svg>
