<svg width="24" height="24" viewBox="0 0 24 24" fill="none" xmlns="http://www.w3.org/2000/svg">
<g clip-path="url(#clip0)">
<path d="M6.45532 8.18604H14.317V9.59229H6.45532V8.18604Z" fill="#FD5631"/>
<path d="M19.1585 12.9551V10.131L20.7723 11.0993V6.2317L10.3861 0L7.86159 1.51472V0H3.22767V4.29506L0 6.2317V11.0993L1.61386 10.131V20.7724H13.4187C14.2978 22.6758 16.2247 24 18.4553 24C21.5127 24 24 21.5127 24 18.4553C24 15.6362 21.8851 13.3017 19.1585 12.9551ZM4.63392 1.40625H6.4553V2.35847L4.63392 3.45131V1.40625ZM1.40625 7.02787L10.3861 1.63992L19.366 7.02787V8.61563L10.3861 3.22767L1.40625 8.61563V7.02787ZM3.02011 9.28725L10.3862 4.86759L17.7523 9.28725V12.9551C16.393 13.1279 15.186 13.7949 14.317 14.7696V11.2969H6.45534V19.3661H3.02011V9.28725ZM12.9107 19.3661H7.86159V12.7031H12.9107V19.3661ZM18.4553 22.5938C16.1734 22.5938 14.317 20.7373 14.317 18.4553C14.317 16.1734 16.1734 14.3169 18.4553 14.3169C20.7373 14.3169 22.5938 16.1734 22.5938 18.4553C22.5938 20.7373 20.7373 22.5938 18.4553 22.5938Z" fill="#FD5631"/>
<path d="M17.9892 18.7911L16.7585 17.5605L15.7642 18.5548L17.9892 20.7798L21.1464 17.6225L20.1521 16.6282L17.9892 18.7911Z" fill="#FD5631"/>
</g>
<defs>
<clipPath id="clip0">
<rect width="24" height="24" fill="white"/>
</clipPath>
</defs>
</svg>
