<svg width="16" height="17" viewBox="0 0 16 17" fill="none" xmlns="http://www.w3.org/2000/svg">
<path fill-rule="evenodd" clip-rule="evenodd" d="M7.99999 6.49991C7.26361 6.49991 6.66665 7.09687 6.66665 7.83324C6.66665 8.56962 7.26361 9.16658 7.99999 9.16658C8.73636 9.16658 9.33332 8.56962 9.33332 7.83324C9.33332 7.09687 8.73636 6.49991 7.99999 6.49991ZM5.33332 7.83324C5.33332 6.36049 6.52723 5.16658 7.99999 5.16658C9.47274 5.16658 10.6667 6.36049 10.6667 7.83324C10.6667 9.306 9.47274 10.4999 7.99999 10.4999C6.52723 10.4999 5.33332 9.306 5.33332 7.83324Z" fill="white"/>
<path fill-rule="evenodd" clip-rule="evenodd" d="M8 3.16675C7.07703 3.16675 6.17479 3.44044 5.40737 3.95321C4.63994 4.46598 4.0418 5.1948 3.68859 6.0475C3.33537 6.90021 3.24294 7.83851 3.42299 8.74375C3.60303 9.64898 4.04746 10.4805 4.70009 11.1332L7.52917 13.9616C7.65417 14.0865 7.82364 14.1566 8.00034 14.1566C8.17703 14.1566 8.3465 14.0865 8.4715 13.9616L11.2999 11.1332C11.9525 10.4805 12.397 9.64898 12.577 8.74375C12.7571 7.83851 12.6646 6.90021 12.3114 6.0475C11.9582 5.1948 11.3601 4.46598 10.5926 3.95321C9.82521 3.44044 8.92297 3.16675 8 3.16675ZM12.2428 12.0759C13.0818 11.2368 13.6532 10.1677 13.8847 9.00384C14.1162 7.83996 13.9974 6.63358 13.5432 5.53724C13.0891 4.4409 12.3201 3.50385 11.3334 2.84458C10.3467 2.1853 9.18668 1.83342 8 1.83342C6.81333 1.83342 5.6533 2.1853 4.66661 2.84458C3.67993 3.50385 2.91089 4.4409 2.45676 5.53724C2.00262 6.63358 1.88378 7.83996 2.11527 9.00384C2.34675 10.1677 2.91817 11.2368 3.75725 12.0759L6.58665 14.9047C6.96167 15.2793 7.47025 15.4899 8.00034 15.4899C8.53042 15.4899 9.03882 15.2795 9.41384 14.9049L12.2428 12.0759Z" fill="white"/>
</svg>
