<svg width="24" height="24" viewBox="0 0 24 24" fill="none" xmlns="http://www.w3.org/2000/svg">
<g clip-path="url(#clip0)">
<path d="M6.45557 3.22778H17.5448V4.63403H6.45557V3.22778Z" fill="#FD5631"/>
<path d="M0 22.5938H24V24H0V22.5938Z" fill="#FD5631"/>
<path d="M3.22767 19.3661H0V20.7723H24V19.3661H20.7723V14.317H22.3861V12.9107H20.7723V10.9799C21.7072 10.6815 22.3861 9.80484 22.3861 8.77233V6.45534H20.7723V1.40625H22.3861V0H1.61386V1.40625H3.22767V6.45534H1.61386V8.77233C1.61386 9.80484 2.29284 10.6815 3.22767 10.9799V12.9107H1.61386V14.3169H3.22767V19.3661ZM12.9107 19.3661H11.0893V14.317H12.9107V19.3661ZM19.3661 16.1384H17.5447V14.317H19.3661V16.1384ZM19.3661 12.9107H16.1384V17.5447H19.3661V19.3661H14.317V12.9107H9.68306V19.3661H4.63392V17.5447H7.86159V12.9107H4.63392V10.9799C4.97977 10.8695 5.29031 10.6799 5.54466 10.4325C5.96222 10.8385 6.53147 11.0893 7.15852 11.0893C7.78556 11.0893 8.35481 10.8386 8.77238 10.4325C9.18994 10.8385 9.75919 11.0893 10.3862 11.0893C11.0132 11.0893 11.5825 10.8386 12 10.4325C12.4176 10.8385 12.9869 11.0893 13.6139 11.0893C14.2409 11.0893 14.8102 10.8386 15.2277 10.4325C15.6453 10.8385 16.2145 11.0893 16.8416 11.0893C17.4686 11.0893 18.0379 10.8386 18.4554 10.4325C18.7098 10.6799 19.0203 10.8695 19.3662 10.9799V12.9107H19.3661ZM4.63392 16.1384V14.317H6.45534V16.1384H4.63392ZM6.24778 8.77233V7.86159H8.0692V8.77233C8.0692 9.2745 7.66064 9.68301 7.15847 9.68301C6.6563 9.68301 6.24778 9.2745 6.24778 8.77233ZM9.47545 8.77233V7.86159H11.2969V8.77233C11.2969 9.2745 10.8883 9.68301 10.3861 9.68301C9.88397 9.68301 9.47545 9.2745 9.47545 8.77233ZM12.7031 8.77233V7.86159H14.5245V8.77233C14.5245 9.2745 14.116 9.68301 13.6139 9.68301C13.1117 9.68301 12.7031 9.2745 12.7031 8.77233ZM15.9308 8.77233V7.86159H17.7522V8.77233C17.7522 9.2745 17.3437 9.68301 16.8415 9.68301C16.3393 9.68301 15.9308 9.2745 15.9308 8.77233ZM20.9799 7.86159V8.77233C20.9799 9.2745 20.5714 9.68301 20.0692 9.68301C19.567 9.68301 19.1585 9.2745 19.1585 8.77233V7.86159H20.9799ZM4.63392 1.40625H19.3661V6.45534H4.63392V1.40625ZM3.02011 8.77233V7.86159H4.84153V8.77233C4.84153 9.2745 4.43297 9.68301 3.9308 9.68301C3.42863 9.68301 3.02011 9.2745 3.02011 8.77233Z" fill="#FD5631"/>
</g>
<defs>
<clipPath id="clip0">
<rect width="24" height="24" fill="white"/>
</clipPath>
</defs>
</svg>
