<svg width="16" height="16" viewBox="0 0 16 16" fill="none" xmlns="http://www.w3.org/2000/svg">
<path fill-rule="evenodd" clip-rule="evenodd" d="M7.99989 2.66659C6.89532 2.66659 5.99989 3.56202 5.99989 4.66658C5.99989 5.77115 6.89532 6.66658 7.99989 6.66658C9.10446 6.66658 9.99989 5.77115 9.99989 4.66658C9.99989 3.56202 9.10446 2.66659 7.99989 2.66659ZM4.66656 4.66658C4.66656 2.82564 6.15894 1.33325 7.99989 1.33325C9.84084 1.33325 11.3332 2.82564 11.3332 4.66658C11.3332 6.50753 9.84084 7.99992 7.99989 7.99992C6.15894 7.99992 4.66656 6.50753 4.66656 4.66658Z" fill="#FD5631"/>
<path fill-rule="evenodd" clip-rule="evenodd" d="M6.66659 10.6666C6.13615 10.6666 5.62744 10.8773 5.25237 11.2524C4.8773 11.6274 4.66659 12.1362 4.66659 12.6666V13.9999C4.66659 14.3681 4.36811 14.6666 3.99992 14.6666C3.63173 14.6666 3.33325 14.3681 3.33325 13.9999V12.6666C3.33325 11.7825 3.68444 10.9347 4.30956 10.3096C4.93468 9.68444 5.78253 9.33325 6.66659 9.33325H9.33325C10.2173 9.33325 11.0652 9.68444 11.6903 10.3096C12.3154 10.9347 12.6666 11.7825 12.6666 12.6666V13.9999C12.6666 14.3681 12.3681 14.6666 11.9999 14.6666C11.6317 14.6666 11.3333 14.3681 11.3333 13.9999V12.6666C11.3333 12.1362 11.1225 11.6274 10.7475 11.2524C10.3724 10.8773 9.86368 10.6666 9.33325 10.6666H6.66659Z" fill="#FD5631"/>
</svg>
