<svg width="24" height="24" viewBox="0 0 24 24" fill="none" xmlns="http://www.w3.org/2000/svg">
<g clip-path="url(#clip0)">
<path d="M0 22.5938H24V24H0V22.5938Z" fill="white"/>
<path d="M24 19.3661H22.3861V11.0893H24V8.48109L18.7466 3.22767H11.0893V0H6.45534V3.22767H5.25338L0 8.48109V11.0893H1.61386V19.3661H0V20.7724H24V19.3661ZM18.1641 4.63392L22.5938 9.06361V9.68306H17.1328L12.0837 4.63392H18.1641ZM7.86159 1.40625H9.68302V3.22767H7.86159V1.40625ZM1.40625 9.68302V9.06356L5.83589 4.63387H11.9163L6.86723 9.68302H1.40625ZM3.02011 14.317H4.84153V16.1384H3.02011V14.317ZM14.5245 19.3661H9.47545V14.317H14.5245V19.3661ZM20.9799 16.1384H19.1585V14.317H20.9799V16.1384ZM20.9799 12.9107H17.7522V17.5447H20.9799V19.3661H15.9308V12.9107H8.0692V19.3661H3.02011V17.5447H6.24778V12.9107H3.02011V11.0893H7.44975L12 6.53902L16.5502 11.0893H20.9799V12.9107Z" fill="white"/>
<path d="M10.3862 9.68298H13.6139V11.0892H10.3862V9.68298Z" fill="white"/>
</g>
<defs>
<clipPath id="clip0">
<rect width="24" height="24" fill="white"/>
</clipPath>
</defs>
</svg>
